<?xml version="1.0" encoding="utf-8"?>
<!-- Generator: Adobe Illustrator 26.0.2, SVG Export Plug-In . SVG Version: 6.00 Build 0)  -->
<svg version="1.1" id="Layer_1" xmlns="http://www.w3.org/2000/svg" xmlns:xlink="http://www.w3.org/1999/xlink" x="0px" y="0px"
	 viewBox="0 0 400 399.8" style="enable-background:new 0 0 400 399.8;" xml:space="preserve">
<style type="text/css">
	.st0{fill:#FFA600;}
</style>
<path class="st0" d="M150,137c0,0-5-15,6-26s30-10,30-10l17.7,10l18.3-10c0,0,23-1,29,10s11,29,5,34s-13,11-13,11l15.7,12
	c0,0,2.3,25.8-4.7,31.9S239,210,228,210s-24.3-10.1-24.3-10.1S198,209,179,210s-20-6.1-23-10.1s-9-30.1-3-37s10-11.9,10-11.9
	L150,137z"/>
<g id="reproduction_line">
	<g id="reproduction_circle-2">
		<path d="M200,12.9c103.3-0.1,187,83.6,187.1,186.9c0,49.6-19.7,97.2-54.8,132.3c-73,73.1-191.5,73.1-264.5,0.1
			S-5.3,140.7,67.7,67.7C102.7,32.5,150.4,12.8,200,12.9 M200,0C89.5,0,0,89.5,0,199.9s89.5,199.9,200,199.9s200-89.5,200-199.9
			S310.5,0,200,0z"/>
	</g>
	
		<image style="overflow:visible;enable-background:new    ;" width="219" height="220" id="reproduction_icon_Image-2" xlink:href="94078766ADFC61B0.png"  transform="matrix(0.9977 0 0 0.9977 94.4697 94.0609)">
	</image>
	<g id="reproduction_line-2">
		<rect x="38.7" y="309.5" width="322.6" height="4.3"/>
		<polygon points="361.3,309.5 38.7,309.5 38.7,313.9 361.3,313.9 		"/>
	</g>
</g>
</svg>
